0
SECTION
2
HEADER
9
$INSUNITS
70
4
9
$ACADVER
1
AC1014
9
$HANDSEED
5
FFFF
0
ENDSEC
0
SECTION
2
TABLES
0
TABLE
2
VPORT
5
8
100
AcDbSymbolTable
0
ENDTAB
0
TABLE
2
LTYPE
5
5
100
AcDbSymbolTable
0
LTYPE
5
14
100
AcDbSymbolTableRecord
100
AcDbLinetypeTableRecord
2
BYBLOCK
70
0
0
LTYPE
5
15
100
AcDbSymbolTableRecord
100
AcDbLinetypeTableRecord
2
BYLAYER
70
0
0
LTYPE
5
16
100
AcDbSymbolTableRecord
100
AcDbLinetypeTableRecord
2
DASHED
70
0
3
Dashed __ __ __ __ __ __ __ __ __ __ __ __ __ _
72
65
73
2
40
0.75
49
0.5
74
0
49
-0.25
74
0
0
ENDTAB
0
TABLE
2
LAYER
5
2
100
AcDbSymbolTable
70
2
0
LAYER
5
50
100
AcDbSymbolTableRecord
100
AcDbLayerTableRecord
2
0
70
0
62
7
6
CONTINUOUS
0
ENDTAB
0
TABLE
2
STYLE
5
3
100
AcDbSymbolTable
70
1
0
STYLE
5
11
100
AcDbSymbolTableRecord
100
AcDbTextStyleTableRecord
2
STANDARD
70
0
0
ENDTAB
0
TABLE
2
VIEW
5
6
100
AcDbSymbolTable
70
0
0
ENDTAB
0
TABLE
2
UCS
5
7
100
AcDbSymbolTable
70
0
0
ENDTAB
0
TABLE
2
APPID
5
9
100
AcDbSymbolTable
70
2
0
APPID
5
12
100
AcDbSymbolTableRecord
100
AcDbRegAppTableRecord
2
ACAD
70
0
0
ENDTAB
0
TABLE
2
DIMSTYLE
5
A
100
AcDbSymbolTable
70
1
0
ENDTAB
0
TABLE
2
BLOCK_RECORD
5
1
100
AcDbSymbolTable
70
1
0
BLOCK_RECORD
5
1F
100
AcDbSymbolTableRecord
100
AcDbBlockTableRecord
2
*MODEL_SPACE
0
BLOCK_RECORD
5
1B
100
AcDbSymbolTableRecord
100
AcDbBlockTableRecord
2
*PAPER_SPACE
0
ENDTAB
0
ENDSEC
0
SECTION
2
BLOCKS
0
BLOCK
5
20
100
AcDbEntity
100
AcDbBlockBegin
2
*MODEL_SPACE
0
ENDBLK
5
21
100
AcDbEntity
100
AcDbBlockEnd
0
BLOCK
5
1C
100
AcDbEntity
100
AcDbBlockBegin
2
*PAPER_SPACE
0
ENDBLK
5
1D
100
AcDbEntity
100
AcDbBlockEnd
0
ENDSEC
0
SECTION
2
ENTITIES
0
CIRCLE
5
100
100
AcDbEntity
8
0
100
AcDbCircle
10
6.3232368240088421
20
123.41879590204661
30
0
40
1.5000000000000062
210
0
220
-0
230
1
0
CIRCLE
5
101
100
AcDbEntity
8
0
100
AcDbCircle
10
-53.676763175991084
20
123.41879590204654
30
0
40
1.5000000000000122
210
0
220
-0
230
1
0
CIRCLE
5
102
100
AcDbEntity
8
0
100
AcDbCircle
10
-19.76633633839414
20
152.95847050758402
30
0
40
1.5000000000000013
210
0
220
0
230
1
0
CIRCLE
5
103
100
AcDbEntity
8
0
100
AcDbCircle
10
-33.67676317599085
20
162.50975243561203
30
0
40
1.4999999999999902
210
0
220
0
230
1
0
CIRCLE
5
104
100
AcDbEntity
8
0
100
AcDbCircle
10
-9.9267631759935124
20
90.159752435611438
30
0
40
0.99999999999999645
210
0
220
0
230
1
0
CIRCLE
5
105
100
AcDbEntity
8
0
100
AcDbCircle
10
11.323236824008749
20
162.50975243561209
30
0
40
1.9999999999999907
210
0
220
0
230
1
0
CIRCLE
5
106
100
AcDbEntity
8
0
100
AcDbCircle
10
-19.766336338394311
20
110.75847050758401
30
0
40
1.5000000000000013
210
0
220
0
230
1
0
CIRCLE
5
107
100
AcDbEntity
8
0
100
AcDbCircle
10
6.3232368240091317
20
3.1597524356110576
30
0
40
1.5000000000000002
210
0
220
0
230
1
0
CIRCLE
5
108
100
AcDbEntity
8
0
100
AcDbCircle
10
-27.066336338394311
20
110.75847050758405
30
0
40
1.4999999999999991
210
0
220
0
230
1
0
LWPOLYLINE
5
109
100
AcDbEntity
8
0
100
AcDbPolyline
90
4
70
1
43
0.0
10
-39.1229010905842
20
74.909752435610642
10
-39.122901090584207
20
84.909752435610642
10
-36.622901090584506
20
84.909752435610656
10
-36.622901090584499
20
74.909752435610656
0
CIRCLE
5
110
100
AcDbEntity
8
0
100
AcDbCircle
10
-27.066336338394137
20
152.95847050758405
30
0
40
1.4999999999999991
210
0
220
0
230
1
0
CIRCLE
5
111
100
AcDbEntity
8
0
100
AcDbCircle
10
-9.9267631759929014
20
69.65975243561148
30
0
40
0.99999999999999645
210
0
220
0
230
1
0
CIRCLE
5
112
100
AcDbEntity
8
0
100
AcDbCircle
10
10.613236824004531
20
110.61975243561247
30
0
40
1.5874999999999995
210
0
220
0
230
1
0
LWPOLYLINE
5
113
100
AcDbEntity
8
0
100
AcDbPolyline
90
4
70
1
43
0.0
10
-42.827214186354531
20
7.2586037196386002
10
-42.827214186354539
20
20.258603719638657
10
-36.327214186354567
20
20.258603719638653
10
-36.32721418635456
20
7.2586037196386126
0
CIRCLE
5
114
100
AcDbEntity
8
0
100
AcDbCircle
10
-58.676763175991212
20
162.50975243561203
30
0
40
1.9999999999999929
210
0
220
0
230
1
0
CIRCLE
5
115
100
AcDbEntity
8
0
100
AcDbCircle
10
-26.777214186354076
20
29.732361570587159
30
0
40
1.0000000000000009
210
0
220
0
230
1
0
CIRCLE
5
116
100
AcDbEntity
8
0
100
AcDbCircle
10
-53.676763175990757
20
3.159752435611102
30
0
40
1.5000000000000036
210
0
220
0
230
1
0
CIRCLE
5
117
100
AcDbEntity
8
0
100
AcDbCircle
10
4.9229390862789293
20
21.738424630413174
30
0
40
1.5000000000000002
210
0
220
0
230
1
0
CIRCLE
5
118
100
AcDbEntity
8
0
100
AcDbCircle
10
4.9229390862789204
20
30.738424630413075
30
0
40
1.5000000000000002
210
0
220
0
230
1
0
CIRCLE
5
119
100
AcDbEntity
8
0
100
AcDbCircle
10
-37.426763175993607
20
90.159752435610642
30
0
40
0.99999999999999645
210
0
220
0
230
1
0
CIRCLE
5
120
100
AcDbEntity
8
0
100
AcDbCircle
10
-26.777214186354087
20
47.732361570587159
30
0
40
1.0000000000000098
210
0
220
0
230
1
0
CIRCLE
5
121
100
AcDbEntity
8
0
100
AcDbCircle
10
6.3232368240091388
20
54.318795902045387
30
0
40
1.5000000000000036
210
0
220
0
230
1
0
LWPOLYLINE
5
122
100
AcDbEntity
8
0
100
AcDbPolyline
90
8
70
1
43
0.0
10
-16.116336338394298
20
113.858470507584
42
0.41421356237318607
10
-15.716336338394326
20
114.25847050758399
10
-15.716336338394159
20
149.458470507584
42
0.4142135623730609
10
-16.116336338394156
20
149.858470507584
10
-30.716336338394157
20
149.85847050758406
42
0.41421356237309176
10
-31.116336338394145
20
149.45847050758405
10
-31.116336338394298
20
114.25847050758405
42
0.414213562373069
10
-30.716336338394299
20
113.85847050758403
0
CIRCLE
5
123
100
AcDbEntity
8
0
100
AcDbCircle
10
-37.426763175992988
20
69.659752435610656
30
0
40
1.0000000000000098
210
0
220
0
230
1
0
LWPOLYLINE
5
124
100
AcDbEntity
8
0
100
AcDbPolyline
90
4
70
1
43
0.0
10
-10.730625261402098
20
74.909752435611452
10
-10.730625261402114
20
84.909752435611452
10
-8.230625261402313
20
84.909752435611466
10
-8.2306252614023077
20
74.909752435611466
0
CIRCLE
5
125
100
AcDbEntity
8
0
100
AcDbCircle
10
-70.66676317599331
20
62.359752435609288
30
0
40
1.5874999999999859
210
0
220
0
230
1
0
CIRCLE
5
126
100
AcDbEntity
8
0
100
AcDbCircle
10
-64.316763175995249
20
110.61975243560951
30
0
40
1.5874999999999859
210
0
220
0
230
1
0
CIRCLE
5
127
100
AcDbEntity
8
0
100
AcDbCircle
10
-40.186763175994713
20
95.379752435610484
30
0
40
1.5875000000000083
210
0
220
0
230
1
0
CIRCLE
5
128
100
AcDbEntity
8
0
100
AcDbCircle
10
-13.676763175990857
20
162.50975243561209
30
0
40
1.5000000000000213
210
0
220
0
230
1
0
LWPOLYLINE
5
129
100
AcDbEntity
8
0
100
AcDbPolyline
90
4
70
1
43
0.0
10
-42.827214186354539
20
32.258603719638643
10
-42.827214186354546
20
45.25860371963865
10
-36.327214186354581
20
45.25860371963865
10
-36.327214186354567
20
32.258603719638643
0
CIRCLE
5
130
100
AcDbEntity
8
0
100
AcDbCircle
10
-52.276763175991981
20
30.739274168828548
30
0
40
1.5000000000000036
210
0
220
0
230
1
0
CIRCLE
5
131
100
AcDbEntity
8
0
100
AcDbCircle
10
-52.276763175992272
20
21.739274168828544
30
0
40
1.5000000000000036
210
0
220
0
230
1
0
CIRCLE
5
132
100
AcDbEntity
8
0
100
AcDbCircle
10
11.883236824006429
20
62.359752435612549
30
0
40
1.5874999999999995
210
0
220
0
230
1
0
CIRCLE
5
133
100
AcDbEntity
8
0
100
AcDbCircle
10
-26.777214186354072
20
22.732361570587155
30
0
40
1.0000000000000009
210
0
220
0
230
1
0
CIRCLE
5
134
100
AcDbEntity
8
0
100
AcDbCircle
10
-53.676763175990708
20
54.318795902045451
30
0
40
1.5000000000000036
210
0
220
0
230
1
0
CIRCLE
5
135
100
AcDbEntity
8
0
100
AcDbCircle
10
-26.777214186354065
20
4.7323615705872051
30
0
40
1.0000000000000009
210
0
220
0
230
1
0
LWPOLYLINE
5
136
100
AcDbEntity
8
0
100
AcDbPolyline
90
4
70
1
43
0.0
10
-0.67706091372098598
20
48.539939491996876
10
-0.67706091372096366
20
3.9624926408456318
10
-10.677060913721064
20
3.962492640845634
10
-10.677060913721091
20
48.539939491996876
0
LWPOLYLINE
5
137
100
AcDbEntity
8
0
100
AcDbPolyline
90
40
70
1
43
0.0
10
22.853236824006405
20
58.418795902045972
42
0.41421356237310331
10
25.853236824006409
20
61.418795902046043
10
25.853236824004384
20
112.15975243561292
42
0.41421356237310719
10
22.853236824004242
20
115.15975243561293
10
14.323236824009433
20
115.15975243561263
42
-0.41421356237310997
10
11.323236824009291
20
118.15975243561266
10
11.323236824009307
20
123.41879590204607
42
0.41421356237310519
10
6.3232368240092018
20
128.4187959020461
10
4.9471458161841095
20
128.41879590204604
42
-0.29872084095773654
10
1.2781285330452903
20
130.82558776246441
10
-4.2584696219227558
20
143.575883104105
42
-0.53997682714100015
10
4.4554464255318562
20
156.85975243561103
10
13.973236824008747
20
156.85975243561109
42
0.41421356237309481
10
16.973236824008715
20
159.85975243561109
10
16.973236824008687
20
165.15975243561104
42
0.41421356237308554
10
13.973236824008746
20
168.1597524356111
10
-61.326763175990642
20
168.15975243561104
42
0.41421356237309503
10
-64.326763175990692
20
165.15975243561101
10
-64.326763175990735
20
159.85975243561103
42
0.41421356237310458
10
-61.326763175990642
20
156.85975243561106
10
-51.808972777513858
20
156.85975243561103
42
-0.53997682714099704
10
-43.095056730059184
20
143.57588310410495
10
-48.631654885026478
20
130.82558776246455
42
-0.29872084095774165
10
-52.300672168165256
20
128.41879590204601
10
-53.676763175990757
20
128.41879590204601
42
0.41421356237314344
10
-58.676763175990715
20
123.41879590204604
10
-58.676763175990743
20
118.15975243560915
42
-0.41421356237309076
10
-61.676763175990743
20
115.15975243560914
10
-72.746763175994687
20
115.15975243560914
42
0.41421356237309243
10
-75.746763175994687
20
112.15975243560911
10
-75.746763175993181
20
61.418795902045957
42
0.41421356237309592
10
-72.746763175993195
20
58.418795902045957
10
-61.676763175990899
20
58.418795902045929
42
-0.41421356237309592
10
-58.676763175990907
20
55.418795902045929
10
-58.676763175990885
20
3.1597524356110362
42
0.41421356237308288
10
-53.676763175990899
20
-1.8402475643890315
10
6.3232368240091308
20
-1.840247564388926
42
0.41421356237309503
10
11.323236824009115
20
3.1597524356110562
10
11.323236824009113
20
55.418795902045957
42
-0.41421356237309592
10
14.323236824009111
20
58.41879590204595
0
ENDSEC
0
SECTION
2
OBJECTS
0
DICTIONARY
5
C
100
AcDbDictionary
3
ACAD_GROUP
350
D
3
ACAD_MLINESTYLE
350
17
0
DICTIONARY
5
D
100
AcDbDictionary
0
DICTIONARY
5
1A
330
C
100
AcDbDictionary
0
DICTIONARY
5
17
100
AcDbDictionary
0
ENDSEC
0
EOF
