0
SECTION
2
HEADER
9
$INSUNITS
70
4
9
$ACADVER
1
AC1014
9
$HANDSEED
5
FFFF
0
ENDSEC
0
SECTION
2
TABLES
0
TABLE
2
VPORT
5
8
100
AcDbSymbolTable
0
ENDTAB
0
TABLE
2
LTYPE
5
5
100
AcDbSymbolTable
0
LTYPE
5
14
100
AcDbSymbolTableRecord
100
AcDbLinetypeTableRecord
2
BYBLOCK
70
0
0
LTYPE
5
15
100
AcDbSymbolTableRecord
100
AcDbLinetypeTableRecord
2
BYLAYER
70
0
0
LTYPE
5
16
100
AcDbSymbolTableRecord
100
AcDbLinetypeTableRecord
2
DASHED
70
0
3
Dashed __ __ __ __ __ __ __ __ __ __ __ __ __ _
72
65
73
2
40
0.75
49
0.5
74
0
49
-0.25
74
0
0
ENDTAB
0
TABLE
2
LAYER
5
2
100
AcDbSymbolTable
70
2
0
LAYER
5
50
100
AcDbSymbolTableRecord
100
AcDbLayerTableRecord
2
0
70
0
62
7
6
CONTINUOUS
0
ENDTAB
0
TABLE
2
STYLE
5
3
100
AcDbSymbolTable
70
1
0
STYLE
5
11
100
AcDbSymbolTableRecord
100
AcDbTextStyleTableRecord
2
STANDARD
70
0
0
ENDTAB
0
TABLE
2
VIEW
5
6
100
AcDbSymbolTable
70
0
0
ENDTAB
0
TABLE
2
UCS
5
7
100
AcDbSymbolTable
70
0
0
ENDTAB
0
TABLE
2
APPID
5
9
100
AcDbSymbolTable
70
2
0
APPID
5
12
100
AcDbSymbolTableRecord
100
AcDbRegAppTableRecord
2
ACAD
70
0
0
ENDTAB
0
TABLE
2
DIMSTYLE
5
A
100
AcDbSymbolTable
70
1
0
ENDTAB
0
TABLE
2
BLOCK_RECORD
5
1
100
AcDbSymbolTable
70
1
0
BLOCK_RECORD
5
1F
100
AcDbSymbolTableRecord
100
AcDbBlockTableRecord
2
*MODEL_SPACE
0
BLOCK_RECORD
5
1B
100
AcDbSymbolTableRecord
100
AcDbBlockTableRecord
2
*PAPER_SPACE
0
ENDTAB
0
ENDSEC
0
SECTION
2
BLOCKS
0
BLOCK
5
20
100
AcDbEntity
100
AcDbBlockBegin
2
*MODEL_SPACE
0
ENDBLK
5
21
100
AcDbEntity
100
AcDbBlockEnd
0
BLOCK
5
1C
100
AcDbEntity
100
AcDbBlockBegin
2
*PAPER_SPACE
0
ENDBLK
5
1D
100
AcDbEntity
100
AcDbBlockEnd
0
ENDSEC
0
SECTION
2
ENTITIES
0
CIRCLE
5
100
100
AcDbEntity
8
0
100
AcDbCircle
10
-6.3232368240088457
20
123.41879590204663
30
0
40
1.5000000000000062
210
0
220
-0
230
1
0
CIRCLE
5
101
100
AcDbEntity
8
0
100
AcDbCircle
10
53.676763175991084
20
123.41879590204655
30
0
40
1.5000000000000122
210
0
220
-0
230
1
0
CIRCLE
5
102
100
AcDbEntity
8
0
100
AcDbCircle
10
19.76633633839414
20
152.95847050758402
30
0
40
1.5000000000000013
210
0
220
-0
230
1
0
CIRCLE
5
103
100
AcDbEntity
8
0
100
AcDbCircle
10
33.67676317599085
20
162.50975243561203
30
0
40
1.4999999999999902
210
0
220
-0
230
1
0
CIRCLE
5
104
100
AcDbEntity
8
0
100
AcDbCircle
10
9.9267631759935124
20
90.159752435611438
30
0
40
0.99999999999999645
210
0
220
-0
230
1
0
CIRCLE
5
105
100
AcDbEntity
8
0
100
AcDbCircle
10
-11.323236824008749
20
162.50975243561209
30
0
40
1.9999999999999907
210
0
220
-0
230
1
0
CIRCLE
5
106
100
AcDbEntity
8
0
100
AcDbCircle
10
19.766336338394311
20
110.75847050758401
30
0
40
1.5000000000000013
210
0
220
-0
230
1
0
CIRCLE
5
107
100
AcDbEntity
8
0
100
AcDbCircle
10
-6.3232368240091317
20
3.1597524356110576
30
0
40
1.5000000000000002
210
0
220
-0
230
1
0
CIRCLE
5
108
100
AcDbEntity
8
0
100
AcDbCircle
10
27.066336338394311
20
110.75847050758405
30
0
40
1.4999999999999991
210
0
220
-0
230
1
0
LWPOLYLINE
5
109
100
AcDbEntity
8
0
100
AcDbPolyline
90
4
70
1
43
0.0
10
39.122901090584207
20
84.909752435610642
10
39.1229010905842
20
74.909752435610642
10
36.622901090584499
20
74.909752435610656
10
36.622901090584506
20
84.909752435610656
0
CIRCLE
5
110
100
AcDbEntity
8
0
100
AcDbCircle
10
27.066336338394137
20
152.95847050758405
30
0
40
1.4999999999999991
210
0
220
-0
230
1
0
CIRCLE
5
111
100
AcDbEntity
8
0
100
AcDbCircle
10
9.9267631759929014
20
69.65975243561148
30
0
40
0.99999999999999645
210
0
220
-0
230
1
0
CIRCLE
5
112
100
AcDbEntity
8
0
100
AcDbCircle
10
-10.613236824004531
20
110.61975243561247
30
0
40
1.5874999999999995
210
0
220
-0
230
1
0
LWPOLYLINE
5
113
100
AcDbEntity
8
0
100
AcDbPolyline
90
4
70
1
43
0.0
10
42.827214186354539
20
20.258603719638657
10
42.827214186354531
20
7.2586037196385966
10
36.32721418635456
20
7.2586037196386144
10
36.327214186354567
20
20.258603719638657
0
CIRCLE
5
114
100
AcDbEntity
8
0
100
AcDbCircle
10
58.676763175991212
20
162.50975243561203
30
0
40
1.9999999999999929
210
0
220
-0
230
1
0
CIRCLE
5
115
100
AcDbEntity
8
0
100
AcDbCircle
10
26.777214186354076
20
29.732361570587159
30
0
40
1.0000000000000009
210
0
220
-0
230
1
0
CIRCLE
5
116
100
AcDbEntity
8
0
100
AcDbCircle
10
53.676763175990757
20
3.159752435611102
30
0
40
1.5000000000000036
210
0
220
-0
230
1
0
CIRCLE
5
117
100
AcDbEntity
8
0
100
AcDbCircle
10
-4.9229390862789293
20
21.738424630413174
30
0
40
1.5000000000000002
210
0
220
-0
230
1
0
CIRCLE
5
118
100
AcDbEntity
8
0
100
AcDbCircle
10
-4.9229390862789204
20
30.738424630413075
30
0
40
1.5000000000000002
210
0
220
-0
230
1
0
CIRCLE
5
119
100
AcDbEntity
8
0
100
AcDbCircle
10
37.426763175993607
20
90.159752435610642
30
0
40
0.99999999999999645
210
0
220
-0
230
1
0
CIRCLE
5
120
100
AcDbEntity
8
0
100
AcDbCircle
10
26.777214186354087
20
47.732361570587159
30
0
40
1.0000000000000098
210
0
220
-0
230
1
0
CIRCLE
5
121
100
AcDbEntity
8
0
100
AcDbCircle
10
-6.3232368240091388
20
54.318795902045387
30
0
40
1.5000000000000036
210
0
220
-0
230
1
0
LWPOLYLINE
5
122
100
AcDbEntity
8
0
100
AcDbPolyline
90
8
70
1
43
0.0
10
15.716336338394314
20
114.25847050758399
42
0.41421356237318607
10
16.116336338394298
20
113.85847050758399
10
30.716336338394299
20
113.85847050758403
42
0.414213562373069
10
31.116336338394298
20
114.25847050758405
10
31.116336338394145
20
149.45847050758405
42
0.41421356237309176
10
30.716336338394157
20
149.85847050758406
10
16.116336338394156
20
149.858470507584
42
0.4142135623730609
10
15.716336338394159
20
149.458470507584
0
CIRCLE
5
123
100
AcDbEntity
8
0
100
AcDbCircle
10
37.426763175992988
20
69.659752435610656
30
0
40
1.0000000000000098
210
0
220
-0
230
1
0
LWPOLYLINE
5
124
100
AcDbEntity
8
0
100
AcDbPolyline
90
4
70
1
43
0.0
10
10.730625261402114
20
84.909752435611452
10
10.730625261402098
20
74.909752435611452
10
8.2306252614023059
20
74.909752435611466
10
8.2306252614023112
20
84.909752435611466
0
CIRCLE
5
125
100
AcDbEntity
8
0
100
AcDbCircle
10
70.66676317599331
20
62.359752435609288
30
0
40
1.5874999999999859
210
0
220
-0
230
1
0
CIRCLE
5
126
100
AcDbEntity
8
0
100
AcDbCircle
10
64.316763175995249
20
110.61975243560951
30
0
40
1.5874999999999859
210
0
220
-0
230
1
0
CIRCLE
5
127
100
AcDbEntity
8
0
100
AcDbCircle
10
40.186763175994713
20
95.379752435610484
30
0
40
1.5875000000000083
210
0
220
-0
230
1
0
CIRCLE
5
128
100
AcDbEntity
8
0
100
AcDbCircle
10
13.676763175990857
20
162.50975243561209
30
0
40
1.5000000000000213
210
0
220
-0
230
1
0
LWPOLYLINE
5
129
100
AcDbEntity
8
0
100
AcDbPolyline
90
4
70
1
43
0.0
10
42.827214186354546
20
45.258603719638657
10
42.827214186354539
20
32.25860371963865
10
36.327214186354567
20
32.25860371963865
10
36.327214186354581
20
45.258603719638657
0
CIRCLE
5
130
100
AcDbEntity
8
0
100
AcDbCircle
10
52.276763175991981
20
30.739274168828548
30
0
40
1.5000000000000036
210
0
220
-0
230
1
0
CIRCLE
5
131
100
AcDbEntity
8
0
100
AcDbCircle
10
52.276763175992272
20
21.739274168828544
30
0
40
1.5000000000000036
210
0
220
-0
230
1
0
CIRCLE
5
132
100
AcDbEntity
8
0
100
AcDbCircle
10
-11.883236824006429
20
62.359752435612549
30
0
40
1.5874999999999995
210
0
220
-0
230
1
0
CIRCLE
5
133
100
AcDbEntity
8
0
100
AcDbCircle
10
26.777214186354072
20
22.732361570587155
30
0
40
1.0000000000000009
210
0
220
-0
230
1
0
CIRCLE
5
134
100
AcDbEntity
8
0
100
AcDbCircle
10
53.676763175990708
20
54.318795902045451
30
0
40
1.5000000000000036
210
0
220
-0
230
1
0
CIRCLE
5
135
100
AcDbEntity
8
0
100
AcDbCircle
10
26.777214186354065
20
4.7323615705872051
30
0
40
1.0000000000000009
210
0
220
-0
230
1
0
LWPOLYLINE
5
136
100
AcDbEntity
8
0
100
AcDbPolyline
90
4
70
1
43
0.0
10
0.67706091372096378
20
3.9624926408456318
10
0.67706091372098598
20
48.539939491996869
10
10.677060913721091
20
48.539939491996869
10
10.677060913721064
20
3.9624926408456318
0
ARC
5
137
100
AcDbEntity
8
0
100
AcDbCircle
10
-22.853236824006409
20
61.418795902045964
30
0
40
2.9999999999999982
210
0
220
0
230
1
100
AcDbArc
50
180
51
270.00000000000006
0
LINE
5
138
100
AcDbEntity
8
0
100
AcDbLine
10
-22.853236824006405
20
58.418795902045972
30
0
11
-14.323236824009111
21
58.41879590204595
31
0
0
ARC
5
139
100
AcDbEntity
8
0
100
AcDbCircle
10
-14.323236824009102
20
55.418795902045957
30
0
40
2.9999999999999893
210
0
220
0
230
1
100
AcDbArc
50
0
51
90.000000000000185
0
LINE
5
140
100
AcDbEntity
8
0
100
AcDbLine
10
-11.323236824009113
20
55.418795902045957
30
0
11
-11.323236824009136
21
3.159752435611054
31
0
0
ARC
5
141
100
AcDbEntity
8
0
100
AcDbCircle
10
-6.3232368240091317
20
3.1597524356110576
30
0
40
5.0000000000000036
210
0
220
0
230
1
100
AcDbArc
50
180
51
270
0
LINE
5
142
100
AcDbEntity
8
0
100
AcDbLine
10
-6.3232368240091308
20
-1.840247564388926
30
0
11
53.676763175990899
21
-1.8402475643889638
31
0
0
ARC
5
143
100
AcDbEntity
8
0
100
AcDbCircle
10
53.676763175990757
20
3.159752435611102
30
0
40
5.0000000000000657
210
-0
220
0
230
1
100
AcDbArc
50
270.00000000000159
51
360
0
LINE
5
144
100
AcDbEntity
8
0
100
AcDbLine
10
58.676763175990885
20
3.1597524356110367
30
0
11
58.676763175990907
21
55.418795902045929
31
0
0
ARC
5
145
100
AcDbEntity
8
0
100
AcDbCircle
10
61.676763175990899
20
55.418795902045936
30
0
40
2.9999999999999982
210
0
220
-0
230
1
100
AcDbArc
50
90
51
180
0
LINE
5
146
100
AcDbEntity
8
0
100
AcDbLine
10
61.676763175990899
20
58.418795902045929
30
0
11
72.746763175993209
21
58.41879590204595
31
0
0
ARC
5
147
100
AcDbEntity
8
0
100
AcDbCircle
10
72.746763175993195
20
61.41879590204595
30
0
40
2.9999999999999982
210
0
220
0
230
1
100
AcDbArc
50
-89.999999999999744
51
0
0
LINE
5
148
100
AcDbEntity
8
0
100
AcDbLine
10
75.746763175993181
20
61.418795902045957
30
0
11
75.746763175994687
21
112.15975243560911
31
0
0
ARC
5
149
100
AcDbEntity
8
0
100
AcDbCircle
10
72.746763175994658
20
112.15975243560911
30
0
40
3.0000000000000249
210
0
220
0
230
1
100
AcDbArc
50
0
51
89.99999999999946
0
ARC
5
150
100
AcDbEntity
8
0
100
AcDbCircle
10
61.676763175990772
20
118.15975243560916
30
0
40
3.0000000000000249
210
0
220
0
230
1
100
AcDbArc
50
180
51
269.99999999999943
0
LINE
5
151
100
AcDbEntity
8
0
100
AcDbLine
10
58.676763175990743
20
118.15975243560915
30
0
11
58.676763175990715
21
123.41879590204604
31
0
0
ARC
5
152
100
AcDbEntity
8
0
100
AcDbCircle
10
53.676763175991084
20
123.41879590204655
30
0
40
4.9999999999996358
210
0
220
0
230
1
100
AcDbArc
50
0
51
90.000000000003752
0
LINE
5
153
100
AcDbEntity
8
0
100
AcDbLine
10
53.676763175990757
20
128.41879590204601
30
0
11
52.300672168165256
21
128.41879590204601
31
0
0
ARC
5
154
100
AcDbEntity
8
0
100
AcDbCircle
10
52.300672168165335
20
132.41879590204607
30
0
40
4.0000000000000577
210
0
220
0
230
1
100
AcDbArc
50
203.47207331221873
51
269.99999999999886
0
LINE
5
155
100
AcDbEntity
8
0
100
AcDbLine
10
48.631654885026478
20
130.82558776246455
30
0
11
43.095056730059184
21
143.57588310410495
31
0
0
ARC
5
156
100
AcDbEntity
8
0
100
AcDbCircle
10
51.808972777513887
20
147.359752435611
30
0
40
9.5000000000000284
210
0
220
0
230
1
100
AcDbArc
50
90.000000000000213
51
203.47207331221861
0
LINE
5
157
100
AcDbEntity
8
0
100
AcDbLine
10
51.808972777513851
20
156.85975243561103
30
0
11
61.326763175990649
21
156.85975243561106
31
0
0
ARC
5
158
100
AcDbEntity
8
0
100
AcDbCircle
10
61.326763175990742
20
159.85975243561103
30
0
40
2.9999999999999893
210
0
220
0
230
1
100
AcDbArc
50
-90.000000000001776
51
0
0
LINE
5
159
100
AcDbEntity
8
0
100
AcDbLine
10
64.326763175990735
20
159.85975243561103
30
0
11
64.326763175990692
21
165.15975243561101
31
0
0
ARC
5
160
100
AcDbEntity
8
0
100
AcDbCircle
10
61.326763175990642
20
165.15975243561101
30
0
40
3.0000000000000515
210
0
220
0
230
1
100
AcDbArc
50
0
51
90
0
LINE
5
161
100
AcDbEntity
8
0
100
AcDbLine
10
61.326763175990642
20
168.15975243561104
30
0
11
-13.973236824008746
21
168.1597524356111
31
0
0
ARC
5
162
100
AcDbEntity
8
0
100
AcDbCircle
10
-13.973236824008648
20
165.15975243561104
30
0
40
3.0000000000000426
210
0
220
0
230
1
100
AcDbArc
50
90.000000000001862
51
180
0
LINE
5
163
100
AcDbEntity
8
0
100
AcDbLine
10
-16.973236824008687
20
165.15975243561104
30
0
11
-16.973236824008715
21
159.85975243561109
31
0
0
ARC
5
164
100
AcDbEntity
8
0
100
AcDbCircle
10
-13.973236824008746
20
159.85975243561109
30
0
40
2.9999999999999716
210
0
220
0
230
1
100
AcDbArc
50
180
51
269.99999999999994
0
LINE
5
165
100
AcDbEntity
8
0
100
AcDbLine
10
-13.973236824008747
20
156.85975243561109
30
0
11
-4.4554464255318527
21
156.85975243561103
31
0
0
ARC
5
166
100
AcDbEntity
8
0
100
AcDbCircle
10
-4.4554464255318527
20
147.35975243561106
30
0
40
9.4999999999999538
210
0
220
0
230
1
100
AcDbArc
50
-23.472073312218814
51
90
0
LINE
5
167
100
AcDbEntity
8
0
100
AcDbLine
10
4.2584696219227567
20
143.575883104105
30
0
11
-1.2781285330452929
21
130.82558776246441
31
0
0
ARC
5
168
100
AcDbEntity
8
0
100
AcDbCircle
10
-4.9471458161840962
20
132.41879590204616
30
0
40
4.0000000000000924
210
0
220
0
230
1
100
AcDbArc
50
269.99999999999983
51
336.52792668777795
0
LINE
5
169
100
AcDbEntity
8
0
100
AcDbLine
10
-4.9471458161841078
20
128.41879590204604
30
0
11
-6.3232368240092018
21
128.4187959020461
31
0
0
ARC
5
170
100
AcDbEntity
8
0
100
AcDbCircle
10
-6.3232368240088457
20
123.41879590204663
30
0
40
4.9999999999994671
210
0
220
0
230
1
100
AcDbArc
50
90.000000000004093
51
180
0
LINE
5
171
100
AcDbEntity
8
0
100
AcDbLine
10
-11.323236824009307
20
123.41879590204607
30
0
11
-11.323236824009291
21
118.15975243561266
31
0
0
ARC
5
172
100
AcDbEntity
8
0
100
AcDbCircle
10
-14.323236824009289
20
118.15975243561263
30
0
40
3.0000000000000071
210
0
220
0
230
1
100
AcDbArc
50
-90.000000000002757
51
0
0
LINE
5
173
100
AcDbEntity
8
0
100
AcDbLine
10
-14.323236824009433
20
115.15975243561263
30
0
11
-22.853236824004245
21
115.15975243561293
31
0
0
ARC
5
174
100
AcDbEntity
8
0
100
AcDbCircle
10
-22.853236824004366
20
112.15975243561292
30
0
40
3.0000000000000071
210
0
220
-0
230
1
100
AcDbArc
50
89.999999999997698
51
180
0
LINE
5
175
100
AcDbEntity
8
0
100
AcDbLine
10
-25.853236824004384
20
112.15975243561292
30
0
11
-25.853236824006409
21
61.418795902046043
31
0
0
LINE
5
176
100
AcDbEntity
8
0
100
AcDbLine
10
56.567867976752254
20
156.85975243561103
30
0
11
-4.4554464255318527
21
156.85975243561103
31
0
0
ENDSEC
0
SECTION
2
OBJECTS
0
DICTIONARY
5
C
100
AcDbDictionary
3
ACAD_GROUP
350
D
3
ACAD_MLINESTYLE
350
17
0
DICTIONARY
5
D
100
AcDbDictionary
0
DICTIONARY
5
1A
330
C
100
AcDbDictionary
0
DICTIONARY
5
17
100
AcDbDictionary
0
ENDSEC
0
EOF
