0
SECTION
2
HEADER
9
$INSUNITS
70
4
9
$ACADVER
1
AC1014
9
$HANDSEED
5
FFFF
0
ENDSEC
0
SECTION
2
TABLES
0
TABLE
2
VPORT
5
8
100
AcDbSymbolTable
0
ENDTAB
0
TABLE
2
LTYPE
5
5
100
AcDbSymbolTable
0
LTYPE
5
14
100
AcDbSymbolTableRecord
100
AcDbLinetypeTableRecord
2
BYBLOCK
70
0
0
LTYPE
5
15
100
AcDbSymbolTableRecord
100
AcDbLinetypeTableRecord
2
BYLAYER
70
0
0
LTYPE
5
16
100
AcDbSymbolTableRecord
100
AcDbLinetypeTableRecord
2
DASHED
70
0
3
Dashed __ __ __ __ __ __ __ __ __ __ __ __ __ _
72
65
73
2
40
0.75
49
0.5
74
0
49
-0.25
74
0
0
ENDTAB
0
TABLE
2
LAYER
5
2
100
AcDbSymbolTable
70
2
0
LAYER
5
50
100
AcDbSymbolTableRecord
100
AcDbLayerTableRecord
2
0
70
0
62
7
6
CONTINUOUS
0
ENDTAB
0
TABLE
2
STYLE
5
3
100
AcDbSymbolTable
70
1
0
STYLE
5
11
100
AcDbSymbolTableRecord
100
AcDbTextStyleTableRecord
2
STANDARD
70
0
0
ENDTAB
0
TABLE
2
VIEW
5
6
100
AcDbSymbolTable
70
0
0
ENDTAB
0
TABLE
2
UCS
5
7
100
AcDbSymbolTable
70
0
0
ENDTAB
0
TABLE
2
APPID
5
9
100
AcDbSymbolTable
70
2
0
APPID
5
12
100
AcDbSymbolTableRecord
100
AcDbRegAppTableRecord
2
ACAD
70
0
0
ENDTAB
0
TABLE
2
DIMSTYLE
5
A
100
AcDbSymbolTable
70
1
0
ENDTAB
0
TABLE
2
BLOCK_RECORD
5
1
100
AcDbSymbolTable
70
1
0
BLOCK_RECORD
5
1F
100
AcDbSymbolTableRecord
100
AcDbBlockTableRecord
2
*MODEL_SPACE
0
BLOCK_RECORD
5
1B
100
AcDbSymbolTableRecord
100
AcDbBlockTableRecord
2
*PAPER_SPACE
0
ENDTAB
0
ENDSEC
0
SECTION
2
BLOCKS
0
BLOCK
5
20
100
AcDbEntity
100
AcDbBlockBegin
2
*MODEL_SPACE
0
ENDBLK
5
21
100
AcDbEntity
100
AcDbBlockEnd
0
BLOCK
5
1C
100
AcDbEntity
100
AcDbBlockBegin
2
*PAPER_SPACE
0
ENDBLK
5
1D
100
AcDbEntity
100
AcDbBlockEnd
0
ENDSEC
0
SECTION
2
ENTITIES
0
CIRCLE
5
100
100
AcDbEntity
8
0
100
AcDbCircle
10
-33.202346671043827
20
27.986864391440101
30
0
40
1.5000000000000111
210
-3.5684196459590329e-30
220
-7.8886090522101023e-31
230
1
0
LWPOLYLINE
5
101
100
AcDbEntity
8
0
100
AcDbPolyline
90
4
70
1
43
0.0
10
-15.452346671043882
20
25.53686439144002
10
-15.452346671043887
20
22.63686439144001
10
-31.152346671043855
20
22.636864391440067
10
-31.152346671043851
20
25.536864391440083
0
CIRCLE
5
102
100
AcDbEntity
8
0
100
AcDbCircle
10
-13.402346671043885
20
27.986864391440022
30
0
40
1.5000000000000089
210
-3.5684196459590336e-30
220
-5.9164567891575728e-31
230
1
0
LINE
5
103
100
AcDbEntity
8
0
100
AcDbLine
10
-9.9247369820762259
20
33.986864391440221
30
-2.7610131682735413e-29
11
-37.428789369900691
21
33.986864391440328
31
3.5527136788004927e-14
0
LINE
5
104
100
AcDbEntity
8
0
100
AcDbLine
10
-40.924736982076226
20
33.986864391440221
30
-2.7610131682735413e-29
11
-68.428789369900699
21
33.986864391440328
31
3.5527136788004927e-14
0
LINE
5
105
100
AcDbEntity
8
0
100
AcDbLine
10
-68.428789369900699
20
33.986864391440328
30
3.5527136788004927e-14
11
-68.428789369902063
21
19.98686439144031
31
0
0
LINE
5
106
100
AcDbEntity
8
0
100
AcDbLine
10
-68.428789369902063
20
19.98686439144031
30
0
11
-40.92473698207769
21
19.986864391440299
31
1.7434483333130442e-29
0
LWPOLYLINE
5
107
100
AcDbEntity
8
0
100
AcDbPolyline
90
4
70
1
43
0.0
10
-62.152346671043844
20
25.536864391440083
10
-46.452346671043884
20
25.53686439144002
10
-46.452346671043891
20
22.63686439144001
10
-62.152346671043858
20
22.636864391440067
0
CIRCLE
5
108
100
AcDbEntity
8
0
100
AcDbCircle
10
-64.202346671043827
20
27.986864391440101
30
0
40
1.5000000000000111
210
-3.5684196459590329e-30
220
-7.8886090522101023e-31
230
1
0
CIRCLE
5
109
100
AcDbEntity
8
0
100
AcDbCircle
10
-44.402346671043887
20
27.986864391440022
30
0
40
1.5000000000000089
210
-3.5684196459590336e-30
220
-5.9164567891575728e-31
230
1
0
LINE
5
110
100
AcDbEntity
8
0
100
AcDbLine
10
21.075263017923774
20
33.986864391440221
30
-2.7610131682735413e-29
11
-6.4287893699006915
21
33.986864391440328
31
3.5527136788004927e-14
0
LINE
5
111
100
AcDbEntity
8
0
100
AcDbLine
10
-6.4287893699020726
20
19.98686439144031
30
0
11
21.07526301792231
21
19.986864391440299
31
1.7434483333130442e-29
0
LINE
5
112
100
AcDbEntity
8
0
100
AcDbLine
10
21.07526301792231
20
19.986864391440299
30
1.7434483333130442e-29
11
21.075263017923774
21
33.986864391440221
31
-2.7610131682735413e-29
0
LWPOLYLINE
5
113
100
AcDbEntity
8
0
100
AcDbPolyline
90
4
70
1
43
0.0
10
-0.15234667104385036
20
25.536864391440083
10
15.54765332895612
20
25.53686439144002
10
15.547653328956113
20
22.63686439144001
10
-0.1523466710438548
20
22.636864391440067
0
CIRCLE
5
114
100
AcDbEntity
8
0
100
AcDbCircle
10
-2.2023466710438289
20
27.986864391440101
30
0
40
1.5000000000000111
210
-3.5684196459590329e-30
220
-7.8886090522101023e-31
230
1
0
CIRCLE
5
115
100
AcDbEntity
8
0
100
AcDbCircle
10
17.597653328956117
20
27.986864391440022
30
0
40
1.5000000000000089
210
-3.5684196459590336e-30
220
-5.9164567891575728e-31
230
1
0
LINE
5
116
100
AcDbEntity
8
0
100
AcDbLine
10
-40.924736982076226
20
33.986864391440221
30
-2.7610131682735413e-29
11
-37.428789369900691
21
33.986864391440328
31
3.5527136788004927e-14
0
LINE
5
117
100
AcDbEntity
8
0
100
AcDbLine
10
-40.92473698207769
20
19.986864391440299
30
1.7434483333130442e-29
11
-37.428789369902077
21
19.98686439144031
31
0
0
LINE
5
118
100
AcDbEntity
8
0
100
AcDbLine
10
-9.9247369820776896
20
19.986864391440299
30
1.7434483333130442e-29
11
-6.4287893699020726
21
19.98686439144031
31
0
0
LINE
5
119
100
AcDbEntity
8
0
100
AcDbLine
10
-9.9247369820762259
20
33.986864391440221
30
-2.7610131682735413e-29
11
-6.4287893699006915
21
33.986864391440328
31
3.5527136788004927e-14
0
LINE
5
120
100
AcDbEntity
8
0
100
AcDbLine
10
-9.9247369820776896
20
19.986864391440299
30
1.7434483333130442e-29
11
-9.9247369820776683
21
14.986864391440298
31
1.7434483333130442e-29
0
LINE
5
121
100
AcDbEntity
8
0
100
AcDbLine
10
-37.428789369902077
20
14.986864391440186
30
0
11
-37.428789369902077
21
19.98686439144031
31
0
0
LINE
5
122
100
AcDbEntity
8
0
100
AcDbLine
10
-37.428789369902077
20
17.48686439144025
30
0
11
-37.428789369902077
21
18.48686439144025
31
0
0
CIRCLE
5
123
100
AcDbEntity
8
0
100
AcDbCircle
10
-33.676763175989876
20
15.486864391440264
30
0
40
1.4999999999999991
210
0
220
0
230
1
0
CIRCLE
5
124
100
AcDbEntity
8
0
100
AcDbCircle
10
-13.67676317598988
20
15.486864391440346
30
0
40
1.4999999999999991
210
0
220
0
230
1
0
LINE
5
125
100
AcDbEntity
8
0
100
AcDbLine
10
-37.428789369902077
20
11.986864391440186
30
0
11
-37.428789369902077
21
16.98686439144031
31
0
0
LINE
5
126
100
AcDbEntity
8
0
100
AcDbLine
10
-9.9247369820776683
20
11.986864391440298
30
1.7434483333130442e-29
11
-37.428789369902077
21
11.986864391440186
31
0
0
LINE
5
127
100
AcDbEntity
8
0
100
AcDbLine
10
-9.9247369820776896
20
16.986864391440296
30
1.7434483333130442e-29
11
-9.9247369820776683
21
11.986864391440298
31
1.7434483333130442e-29
0
ENDSEC
0
SECTION
2
OBJECTS
0
DICTIONARY
5
C
100
AcDbDictionary
3
ACAD_GROUP
350
D
3
ACAD_MLINESTYLE
350
17
0
DICTIONARY
5
D
100
AcDbDictionary
0
DICTIONARY
5
1A
330
C
100
AcDbDictionary
0
DICTIONARY
5
17
100
AcDbDictionary
0
ENDSEC
0
EOF
